**ABCDEFGHIJKLMNOPQRSTUVWXYZabcdefghijklmnopqrstuvwxyz**************************
**PARASOLID !"#$%&'()*+,-./:;<=>?@[\]^_`{|}~0123456789**************************
**PART1;
MC=AMD64;
MC_MODEL=Intel64 Family 6 Model 60 Stepping 3, GenuineIntel;
MC_ID=unknown;
OS=Windows_NT;
OS_RELEASE=unknown;
FRU=Parasolid Version 31.1, build 290,  3- 9-2020;
APPL=SOLIDWORKS 2020-2020128;
SITE=;
USER=unknown;
FORMAT=text;
GUISE=transmit;
KEY=E3D Hemera Mount for FFCP-Bar-V3;
FILE=E3D Hemera Mount for FFCP-Bar-V3.x_t;
DATE=Sat Jan 23 11:26:00 2021;
**PART2;
SCH=SCH_3101290_31100;
USFLD_SIZE=0;
**PART3;
**END_OF_HEADER*****************************************************************
T51 : TRANSMIT FILE created by modeller version 310129023 SCH_3101290_31100_1300
6222 0 12 34 CCCCCCI4 mesh1006 0 I8 polyline1008 0 CCCCCCCDI5 owner1040 0 CCCCCC
I13 boundary_mesh1006 0 I17 boundary_polyline1008 0 CCCA16 index_map_offset0 0 1
 dA9 index_map82 0 A17 node_id_index_map82 0 A20 schema_embedding_map82 0 A5 chi
ld12 0 A14 lowest_node_id0 0 1 dA16 mesh_offset_data206 0 Z1 2210 2 3 0 0 0 0 0
 0 1e3 1e-8 0 4 0 1 0 1 1 5 6 7 8 0 0 9 10 11 0 0 0 0 0 0 0 81 255 2 2 2179 12 1
 13 0 0 0 0 14 70 11 CI9 list_type0 0 1 uI10 notransmit0 0 1 lCCCDCCDI12 finger_
index0 0 1 dI12 finger_block1012 0 CZ3 0 4 T1 0 0 13 20 1 15 15 13 255 5 272 0 1
 0 16 0 0 17 0 50 255 6 1615 18 19 20 0 0 -.004 -1180909413463516e-34 -.003 0 .7
07106781186547 -.707106781186548 -1 0 0 30 255 7 1593 0 10 21 0 0 -.004 .0015 -.
0015 0 .707106781186548 .707106781186547 29 255 8 1585 0 11 22 0 .004 .003 0 19
 8 CCCCCCCA5 owner12 0 Z9 90 0 1 17 0 23 V0 16 255 10 1591 24 ?25 0 26 7 0 0 1 1
8 255 11 1583 0 27 0 28 8 ?1 17 255 27 0 29 30 31 11 32 26 0 33 +18 28 1574 0 34
 11 35 22 ?1 17 34 0 36 37 38 28 39 40 0 31 +18 35 1566 0 25 28 41 42 ?1 29 22 1
576 0 28 42 8 -.004 .003 0 29 42 1568 0 35 43 22 .004 -1180909413463516e-34 -.00
3 29 43 1565 0 41 44 42 -.004 -1180909413463516e-34 -.003 18 41 1563 0 39 35 45
 43 ?1 29 44 1485 0 45 46 43 .011 .028 -.051 18 45 1481 0 47 41 48 44 ?1 29 46 1
484 0 49 50 44 .011 .022 -.051 18 49 1413 0 51 52 53 46 ?1 29 50 1437 0 48 54 46
 -.004 .028 -.051 18 48 1435 0 55 45 56 50 ?1 29 54 1429 0 56 57 50 .009 .03 -.0
53 18 56 1427 0 58 48 59 54 ?1 29 57 1426 0 59 60 54 -.004 .03 -.053 18 59 1424
 0 61 56 52 57 ?1 29 60 1418 0 52 62 57 -.004 .022 -.051 18 52 1416 0 63 59 49 6
0 ?1 29 62 1353 0 53 64 60 -.004 .022 -.038 18 53 1351 0 65 49 66 62 ?1 29 64 13
50 0 66 67 62 .011 .022 -.038 18 66 1348 0 68 53 69 64 ?1 29 67 1342 0 69 70 64
 -.004 .028 -.038 18 69 1340 0 71 66 72 67 ?1 29 70 1339 0 72 73 67 .011 .028 -.
038 18 72 1337 0 74 69 75 70 ?1 29 73 1099 0 75 76 70 .0018 .015 -.0349 18 75 10
97 0 77 72 78 73 ?1 29 76 1067 0 78 79 73 -.002 .0032 -.0349 18 78 1065 0 80 75
 81 76 ?1 29 79 961 0 81 82 76 .004 .015 -.003 18 81 959 0 83 78 84 79 ?1 29 82
 952 0 84 85 79 -.004 .015 -.003 18 84 950 0 86 81 87 82 ?1 29 85 944 0 87 88 82
 .004 .012 0 18 87 942 0 30 84 89 85 ?1 29 88 941 0 89 90 85 -.004 .012 0 18 89
 939 0 37 87 91 88 ?1 29 90 761 0 91 92 88 .009 .02 -.053 18 91 759 0 93 89 94 9
0 ?1 29 92 731 0 94 95 90 .004 .035 -.053 18 94 729 0 96 91 97 92 ?1 29 95 728 0
 97 98 92 .004 .035 -.065 18 97 726 0 99 94 100 95 ?1 29 98 712 0 100 101 95 .00
4 .015 -.065 18 100 710 0 102 97 103 98 ?1 29 101 431 0 103 104 98 -.004 .02 -.0
53 18 103 429 0 105 100 106 101 ?1 29 104 420 0 106 107 101 .004 .015 -.048 18 1
06 418 0 108 103 109 104 ?1 29 107 417 0 109 110 104 -.004 .015 -.048 18 109 415
 0 111 106 112 107 ?1 29 110 361 0 112 113 107 .004 .042 -.065 18 112 359 0 114
 109 115 110 ?1 29 113 358 0 115 116 110 -.004 .042 -.065 18 115 356 0 117 112 1
18 113 ?1 29 116 350 0 118 119 113 .004 .042 -.053 18 118 348 0 120 115 121 116
 ?1 29 119 347 0 121 122 116 -.004 .042 -.053 18 121 345 0 123 118 124 119 ?1 29
 122 209 0 125 126 119 -.004 .0032 -.065 18 125 189 0 127 128 129 122 ?1 29 126
 210 0 129 130 122 -.004 .0032 -.028 18 129 190 0 131 125 132 126 ?1 29 130 211
 0 132 133 126 -.004 -1102181770279956e-33 -.028 18 132 191 0 134 129 135 130 ?1
 29 133 87 0 124 136 130 .004 .0032 -.065 18 124 85 0 137 121 138 133 ?1 29 136
 84 0 138 139 133 .004 .0032 -.028 18 138 82 0 140 124 128 136 ?1 29 139 81 0 12
8 141 136 .004 -1102181770279956e-33 -.028 18 128 79 0 142 138 125 139 ?1 29 141
 663 0 135 143 139 .011 .022 -.065 18 135 577 0 144 132 145 141 ?1 29 143 666 0
 145 146 141 .011 .028 -.065 18 145 580 0 147 135 148 143 ?1 29 146 1274 0 148 1
49 143 .0018 .0032 -.0332 18 148 1154 0 150 145 151 146 ?1 29 149 1275 0 151 152
 146 -.002 .0032 -.0332 18 151 1156 0 153 148 154 149 ?1 29 152 1277 0 154 155 1
49 .0018 .0032 -.0349 18 154 1160 0 156 151 157 152 ?1 29 155 1278 0 157 158 152
 .0018 .015 -.0332 18 157 1162 0 159 154 160 155 ?1 29 158 1279 0 160 161 155 -.
002 .015 -.0332 18 160 1163 0 162 157 163 158 ?1 29 161 1280 0 163 0 158 -.002 .
015 -.0349 18 163 1164 0 164 160 0 161 ?1 17 164 0 165 166 167 163 80 168 0 169
 +15 255 165 1193 0 164 170 0 17 166 0 165 171 164 160 172 173 0 174 -17 167 0 1
65 164 171 78 175 176 0 177 -17 80 0 178 156 169 78 164 168 0 167 -16 168 1141 1
79 ?164 180 181 182 0 0 1 17 169 0 178 80 183 163 184 185 0 172 +15 178 1197 0 1
56 186 0 17 183 0 178 169 156 75 187 181 0 184 +17 184 0 188 189 172 75 169 185
 0 0 -16 185 1148 190 ?169 173 191 192 0 0 1 17 172 0 188 184 174 163 166 173 0
 0 +15 188 1113 0 189 193 194 17 174 0 188 172 189 160 195 196 0 0 -16 173 1138
 197 ?172 196 185 198 0 0 1 81 2 197 2058 199 173 0 0 200 201 0 0 16 196 1151 20
2 ?195 181 173 203 0 0 1 30 198 1265 0 173 192 203 0 +-.002 .015 510212787051997
e-33 -255106393526e-27 0 -1 31 255 192 1266 0 185 204 198 0 +-999999999999962e-1
9 .015 -.0349 0 1 0 0 0 1 .0019 31 203 1264 0 196 198 205 0 +-999999999999959e-1
9 .015 -.0332 0 1 0 0 0 1 .0019 30 205 1263 0 206 203 207 0 +.0018 -173472347597
6805e-33 -.0332 0 1 0 16 206 1135 208 ?159 209 180 205 0 0 1 30 207 1262 0 180 2
05 182 0 +-.002 -1734723475976805e-33 -.0332 0 1 0 16 180 1137 210 ?162 206 168
 207 0 0 1 30 182 1261 0 168 207 211 0 +-.002 -1734723475976805e-33 -.0349 0 1 0
 30 211 1260 0 181 182 212 0 +.0018 -1734723475976805e-33 -.0349 0 1 0 16 181 11
34 213 ?183 168 196 211 0 0 1 31 212 1048 0 214 211 215 0 +-999999999999959e-19
 160486653172047e-32 -.02155 0 -1 -744717648130147e-31 0 744717648130147e-31 -1
 .0015 16 214 1023 216 ?217 218 219 212 0 0 1 31 215 1047 0 218 212 220 0 +-9999
99999999959e-19 .015 -.02155 0 1 0 0 0 1 .0015 16 218 1022 221 ?222 223 214 215
 0 0 1 30 220 652 0 223 215 224 0 +.011 .028 -.065 0 1 0 16 223 560 225 ?226 227
 218 220 0 0 1 30 224 651 0 228 220 229 0 +.011 .028 -.035 0 0 1 16 228 563 230
 ?47 231 227 224 227 227 1 30 229 649 0 232 224 233 0 +.011 .022 -.035 0 -115648
2317317872e-31 -1 16 232 1349 234 ?235 236 231 229 231 231 1 30 233 647 0 236 22
9 237 0 +-.004 .022 -.035 0 1156482317317872e-31 1 16 236 1417 238 ?65 239 232 2
33 0 0 1 30 237 641 0 239 233 240 0 +-.004 .028 -.035 0 0 -1 16 239 1341 241 ?24
2 243 236 237 0 0 1 31 240 11 0 244 237 245 0 +.004 .008 -.025 1 0 0 0 0 -1 .001
75 16 244 9 246 ?247 248 249 240 0 0 1 31 245 16 0 248 240 250 0 +.004 .008 -.05
9 1 0 0 0 0 -1 .00175 16 248 14 201 ?251 252 244 245 0 0 1 31 250 21 0 252 245 2
53 0 +.004 .042 -.059 1 0 0 0 0 -1 .00175 16 252 19 254 ?255 256 248 250 0 0 1 3
0 253 26 0 257 250 258 0 +.004 0 -.065 0 -1 0 16 257 360 259 ?260 261 256 253 25
6 256 1 30 258 36 0 261 253 262 0 +.004 111442841486995e-31 -.053 0 -1 -21026951
2239613e-30 16 261 349 263 ?264 265 257 258 0 0 1 30 262 41 0 265 258 266 0 +.00
4 .015 0 0 0 -1 16 265 960 267 ?108 268 261 262 0 0 1 30 266 46 0 268 262 269 0
 +.004 0 0 0 1 0 16 268 1584 270 ?30 271 265 266 0 0 1 30 269 51 0 271 266 272 0
 +.004 0 0 0 3936364711545065e-32 1 16 271 49 273 ?274 275 268 269 0 0 1 30 272
 56 0 275 269 276 0 +.004 0 -.028 0 -1 0 16 275 54 277 ?278 279 271 272 0 0 1 30
 276 61 0 279 272 280 0 +.004 .0032 487597950004291e-33 0 -152374359376341e-30 1
 16 279 59 281 ?282 283 275 276 0 0 1 31 280 208 0 243 276 284 0 +-.004 .008 -.0
25 1 0 0 0 0 -1 .00175 16 243 184 285 ?286 287 239 280 0 0 1 31 284 207 0 287 28
0 288 0 +-.004 .008 -.059 1 0 0 0 0 -1 .00175 16 287 179 289 ?290 291 243 284 0
 0 1 31 288 206 0 291 284 292 0 +-.004 .042 -.059 1 0 0 0 0 -1 .00175 16 291 174
 293 ?294 295 287 288 0 0 1 30 292 205 0 295 288 296 0 +-.004 0 -.065 0 -1 0 16
 295 357 297 ?127 298 291 292 0 0 1 30 296 203 0 298 292 299 0 +-.004 1114428414
86995e-31 -.053 0 -1 -210269512239613e-30 16 298 346 300 ?301 302 295 296 0 0 1
 30 299 202 0 302 296 303 0 +-.004 .015 0 0 0 -1 16 302 951 200 ?111 304 298 299
 0 0 1 30 303 201 0 304 299 305 0 +-.004 0 0 0 1 0 16 304 1575 306 ?37 307 302 3
03 0 0 1 30 305 200 0 307 303 308 0 +-.004 0 0 0 3936364711545065e-32 1 16 307 1
44 309 ?38 310 304 305 0 0 1 30 308 199 0 310 305 311 0 +-.004 0 -.028 0 -1 0 16
 310 139 312 ?313 249 307 308 0 0 1 30 311 198 0 249 308 314 0 +-.004 .0032 4875
97950004291e-33 0 -152374359376341e-30 1 16 249 134 315 ?316 244 310 311 0 0 1 3
0 314 264 0 283 311 317 0 +.004 .0032 -.065 -1 0 0 16 283 217 318 ?319 320 279 3
14 0 0 1 30 317 265 0 320 314 321 0 +.004 .0032 -.028 -1 0 0 16 320 218 322 ?131
 323 283 317 0 0 1 30 321 266 0 323 317 324 0 +.004 -1102181770279956e-33 -.028
 -1 0 0 16 323 219 325 ?134 326 320 321 0 0 1 30 324 353 0 326 321 327 0 +.004 .
042 -.053 -1 0 0 16 326 351 328 ?329 330 323 324 0 0 1 30 327 364 0 330 324 331
 0 +.004 .042 -.065 1 0 0 16 330 362 332 ?333 334 326 327 0 0 1 31 331 372 0 334
 327 335 0 +.004 .042 -.059 1 0 0 0 0 -1 .006 16 334 370 336 ?120 337 330 331 0
 0 1 31 335 385 0 337 331 338 0 --.004 .042 -.059 1 0 0 0 0 -1 .006 16 337 383 3
39 ?117 340 334 335 0 0 1 30 338 423 0 340 335 341 0 +.004 .015 -.048 -1 0 0 16
 340 421 342 ?343 344 337 338 0 0 1 30 341 434 0 344 338 345 0 -.004 .02 -.053 -
1 0 0 16 344 432 346 ?347 348 340 341 0 0 1 31 345 445 0 348 341 349 0 +-.004 .0
2 -.048 1 0 0 0 0 -1 .005 16 348 437 350 ?351 352 344 345 0 0 1 30 349 715 0 352
 345 353 0 +.004 .015 -.053 0 1156482317317872e-31 1 16 352 713 354 ?355 356 348
 349 0 0 1 30 353 734 0 356 349 357 0 +.004 .035 -.065 0 0 -1 16 356 732 358 ?99
 359 352 353 0 0 1 30 357 854 0 359 353 360 0 -.011 .022 -.065 .707106781186552
 .707106781186544 0 16 359 737 361 ?102 362 356 357 0 0 1 32 255 360 855 0 362 3
57 363 0 +.009 .02 -.048 .707106781186544 -.707106781186552 817756488897804e-31
 -.707106781186552 -.707106781186544 817756488897795e-31 .00707106781186552 .005
 16 362 742 364 ?365 366 359 360 0 0 1 30 363 857 0 366 360 367 0 -.0215 .0175 -
.053 .707106781186551 -.707106781186544 -1486829979814172e-31 16 366 1428 368 ?9
6 369 362 363 0 0 1 30 367 858 0 369 363 370 0 -.011 .028 -.065 -.70710678118655
1 .707106781186544 0 16 369 754 371 ?147 372 366 367 0 0 1 30 370 947 0 372 367
 373 0 +.004 .012 0 -1 0 0 16 372 945 374 ?375 376 369 370 0 0 1 31 373 955 0 37
6 370 377 0 --.004 .012 -.003 1 0 0 0 0 -1 .003 16 376 953 378 ?86 379 372 373 0
 0 1 30 377 964 0 379 373 380 0 -.004 .015 -.003 -1 0 0 16 379 962 381 ?83 382 3
76 377 0 0 1 31 380 969 0 382 377 383 0 +.004 .012 -.003 1 0 0 0 0 -1 .003 16 38
2 967 384 ?385 386 379 380 0 0 1 31 383 1071 0 386 380 387 0 +-999999999999962e-
19 .0032 -.0349 0 -1 -152374359376341e-30 0 152374359376341e-30 -1 .0019 16 386
 1069 388 ?156 176 382 383 0 0 1 30 387 1075 0 176 383 389 0 +-.002 .0032 201823
631116029e-32 255106393526e-27 -152374359376341e-30 1 16 176 1073 390 ?175 391 3
86 387 0 0 1 31 389 1079 0 391 387 392 0 +-999999999999959e-19 .0032 -.0332 0 -1
 -152374359376341e-30 0 152374359376341e-30 -1 .0019 16 391 1077 393 ?153 394 17
6 389 0 0 1 30 392 1082 0 394 389 395 0 +.0018 .0032 76821498288289e-32 12755319
6763e-27 -152374359376341e-30 1 16 394 1080 396 ?150 397 391 392 0 0 1 30 395 13
45 0 397 392 398 0 +-.0345941170815567 .028 -.038 1 0 0 16 397 1343 399 ?400 401
 394 395 0 0 1 30 398 1356 0 401 395 402 0 --.0345941170815567 .022 -.038 1 0 0
 16 401 1354 403 ?404 405 397 398 0 0 1 31 402 1364 0 405 398 406 0 --.004 .025
 -.038 1 0 0 0 0 -1 .003 16 405 1362 407 ?71 408 401 402 0 0 1 31 406 1379 0 408
 402 409 0 +.011 .025 -.038 1 0 0 0 0 -1 .003 16 408 1377 410 ?68 411 405 406 0
 0 1 30 409 1421 0 411 406 412 0 --.0345941170815567 .022 -.051 -1 0 0 16 411 14
19 413 ?414 415 408 409 0 0 1 30 412 1432 0 415 409 416 0 +.004 .03 -.053 1 0 0
 16 415 1430 417 ?418 419 411 412 0 0 1 30 416 1443 0 419 412 420 0 --.034594117
0815567 .028 -.051 1 0 0 16 419 1441 421 ?55 422 415 416 0 0 1 31 420 1486 0 422
 416 423 0 +-.004 .02 -.051 1 0 0 0 0 -1 .002 16 422 1446 424 ?63 425 419 420 0
 0 1 32 423 1487 0 425 420 426 0 -.009 .02 -.051 .707106781186544 -.707106781186
552 817756488897804e-31 -.707106781186552 -.707106781186544 817756488897795e-31
 .002828427124746205 .002 16 425 1455 427 ?93 428 422 423 0 0 1 32 426 1488 0 42
8 423 429 0 -.009 .03 -.051 .707106781186544 .707106781186551 0 .707106781186551
 -.707106781186544 0 .002828427124746205 .002 16 428 1459 430 ?431 432 425 426 0
 0 1 31 429 1489 0 432 426 433 0 +-.004 .03 -.051 1 0 0 0 0 -1 .002 16 432 1467
 434 ?61 435 428 429 0 0 1 30 433 1571 0 435 429 436 0 +.004 -1180909413463516e-
34 -.003 -1 0 0 16 435 1569 437 ?438 40 432 433 0 0 1 30 436 1579 0 40 433 21 0
 --.004 -1180909413463516e-34 -.003 0 -.707106781186548 -.707106781186547 16 40
 1577 439 ?34 26 435 436 0 0 1 30 21 1588 0 26 436 7 0 +.004 .003 0 1 0 0 16 26
 1586 440 ?27 10 40 21 0 0 1 81 2 440 2056 199 26 0 0 285 200 0 0 80 255 2 199 4
41 442 9000 0 0 0 0 3 6 0 0 0 FFFFFFTFFFFFFF9 1 81 2 285 2055 199 243 0 0 364 44
0 0 0 81 2 200 2057 199 302 0 0 440 197 0 0 81 2 364 2054 199 362 0 0 208 285 0
 0 81 2 208 2053 199 206 0 0 443 364 0 0 81 2 443 2052 199 256 0 0 361 208 0 0 1
6 256 711 443 ?137 257 252 253 257 257 1 81 2 361 2051 199 359 0 0 368 443 0 0 8
1 2 368 2050 199 366 0 0 444 361 0 0 81 2 444 2049 199 209 0 0 381 368 0 0 16 20
9 1208 444 ?445 219 206 446 0 0 1 81 2 381 2048 199 379 0 0 289 444 0 0 81 2 289
 2047 199 287 0 0 424 381 0 0 81 2 424 2046 199 422 0 0 427 289 0 0 81 2 427 204
5 199 425 0 0 210 424 0 0 81 2 210 2044 199 180 0 0 399 427 0 0 81 2 399 2043 19
9 397 0 0 384 210 0 0 81 2 384 2042 199 382 0 0 447 399 0 0 81 2 447 2041 199 22
7 0 0 332 384 0 0 16 227 1439 447 ?74 228 223 224 228 228 1 81 2 332 2040 199 33
0 0 0 277 447 0 0 81 2 277 2039 199 275 0 0 225 332 0 0 81 2 225 2038 199 223 0
 0 216 277 0 0 81 2 216 2037 199 214 0 0 293 225 0 0 81 2 293 2036 199 291 0 0 3
50 216 0 0 81 2 350 2035 199 348 0 0 346 293 0 0 81 2 346 2034 199 344 0 0 410 3
50 0 0 81 2 410 2033 199 408 0 0 328 346 0 0 81 2 328 2032 199 326 0 0 417 410 0
 0 81 2 417 2031 199 415 0 0 190 328 0 0 81 2 190 2030 199 185 0 0 342 417 0 0 8
1 2 342 2029 199 340 0 0 309 190 0 0 81 2 309 2028 199 307 0 0 238 342 0 0 81 2
 238 2027 199 236 0 0 430 309 0 0 81 2 430 2026 199 428 0 0 179 238 0 0 81 2 179
 2025 199 168 0 0 354 430 0 0 81 2 354 2024 199 352 0 0 393 179 0 0 81 2 393 202
3 199 391 0 0 421 354 0 0 81 2 421 2022 199 419 0 0 267 393 0 0 81 2 267 2021 19
9 265 0 0 318 421 0 0 81 2 318 2020 199 283 0 0 437 267 0 0 81 2 437 2019 199 43
5 0 0 396 318 0 0 81 2 396 2018 199 394 0 0 315 437 0 0 81 2 315 2017 199 249 0
 0 403 396 0 0 81 2 403 2016 199 401 0 0 371 315 0 0 81 2 371 2015 199 369 0 0 2
63 403 0 0 81 2 263 2014 199 261 0 0 448 371 0 0 81 2 448 2013 199 191 0 0 221 2
63 0 0 16 191 1145 448 ?77 185 0 204 0 0 1 81 2 221 2012 199 218 0 0 449 448 0 0
 81 2 449 2011 199 219 0 0 325 221 0 0 16 219 1205 449 ?450 214 209 451 0 0 1 81
 2 325 2010 199 323 0 0 241 449 0 0 81 2 241 2009 199 239 0 0 213 325 0 0 81 2 2
13 2008 199 181 0 0 24 241 0 0 81 2 24 2007 199 10 0 0 322 213 0 0 81 2 322 2006
 199 320 0 0 439 24 0 0 81 2 439 2005 199 40 0 0 230 322 0 0 81 2 230 2004 199 2
28 0 0 0 439 0 0 17 450 0 452 450 450 0 453 219 0 0 +31 451 1273 0 219 0 446 0 +
-999999999999959e-19 -1734723475976805e-33 -.00655 0 1 0 0 0 1 .0019 31 446 1272
 0 209 451 204 0 +-999999999999959e-19 .015 -.00655 0 1 0 0 0 1 .0019 30 204 126
7 0 191 446 192 0 +.0018 .015 -229595754173401e-33 -127553196763e-27 0 -1 15 452
 1087 0 450 454 455 17 453 0 456 453 453 0 450 219 0 0 -15 456 1214 0 453 457 45
8 14 255 457 1211 459 ?460 186 456 5 461 -0 0 460 186 23 15 458 1215 0 445 457 0
 17 445 0 458 445 445 0 462 209 0 0 +17 462 0 194 462 462 0 445 209 0 0 -15 194
 1093 0 462 193 463 14 193 234 464 ?465 466 188 5 467 +0 0 465 466 23 15 463 101
5 0 468 193 469 17 468 0 463 468 468 0 222 218 0 0 -15 469 233 0 470 193 0 17 47
0 0 469 83 343 84 111 302 0 471 -17 83 0 469 108 470 81 471 379 0 472 +17 343 0
 469 470 108 109 473 340 0 0 +17 111 0 36 351 86 109 470 302 0 474 +17 471 0 475
 476 477 84 83 379 0 0 -15 475 980 0 477 478 0 17 476 0 475 479 471 89 86 376 0
 375 -17 477 0 475 471 479 81 385 382 0 0 -17 479 0 475 477 476 87 375 372 0 0 -
17 385 0 480 33 472 87 477 382 0 479 +15 480 520 0 33 481 482 17 33 0 480 25 385
 11 30 268 0 483 -17 472 0 480 385 355 81 108 265 0 477 -17 355 0 480 472 484 10
6 485 352 0 473 +17 108 0 469 343 83 106 472 265 0 355 +17 484 0 480 355 486 100
 137 256 0 485 -17 485 0 487 144 488 100 355 352 0 0 -17 473 0 489 365 474 106 3
43 340 0 488 -15 489 454 0 473 490 0 17 365 0 489 491 473 91 488 362 0 347 +17 4
74 0 489 473 491 109 351 348 0 343 -17 488 0 487 485 93 106 365 362 0 0 -15 487
 873 0 488 492 0 17 93 0 487 488 51 91 493 425 0 365 +17 51 0 487 93 144 49 494
 231 0 414 -17 493 0 495 496 347 49 93 425 0 0 -15 495 1506 0 493 460 0 17 496 0
 495 105 493 52 414 411 0 0 -17 347 0 495 493 105 91 491 344 0 0 +17 105 0 495 3
47 496 103 63 422 0 351 -17 491 0 489 474 365 103 347 344 0 0 -17 63 0 36 65 351
 52 105 422 0 497 +17 351 0 36 63 111 103 474 348 0 491 +15 36 133 0 38 498 499
 17 38 0 36 34 313 41 500 307 0 0 +14 498 128 501 ?490 502 503 5 504 -0 0 490 50
2 23 15 499 131 0 290 498 505 17 290 0 499 290 290 0 506 287 0 0 +15 505 130 0 2
86 498 0 17 286 0 505 286 286 0 507 243 0 0 +17 507 0 508 507 507 0 286 243 0 0
 -15 508 251 0 507 509 0 14 509 250 510 ?511 512 513 5 514 +0 0 511 512 23 81 1
 510 2183 515 509 516 0 501 517 518 14 511 226 517 ?502 509 519 5 520 +0 0 502 5
09 23 14 512 246 521 ?509 522 523 5 524 +0 0 509 522 23 15 513 249 0 247 509 508
 51 255 514 263 0 509 524 525 0 -.004 .008 -.025 -1 0 0 .00175 0 0 1 13 23 91 0
 0 0 0 0 0 9 16 14 16 1396 526 ?481 0 527 5 528 +0 0 481 0 23 81 1 526 2186 515
 16 529 0 521 530 531 14 481 517 530 ?532 16 480 5 533 +502 502 532 16 23 15 527
 1344 0 534 16 0 51 528 1399 535 16 536 537 0 +-.004 .025 -.038 1 0 0 .003 0 0 -
1 81 2 535 1400 538 528 0 0 539 18 540 541 51 536 991 0 478 542 528 0 +.004 .012
 -.003 -1 0 0 .003 0 0 1 51 537 1517 0 460 528 20 0 +.004 .02 -.051 -1 0 0 .002
 0 0 1 14 460 1505 543 ?544 457 495 5 537 -0 0 544 457 23 51 20 1538 0 544 537 6
 0 +.004 .03 -.051 1 0 0 .002 0 0 -1 14 544 1526 545 ?19 460 546 5 20 -0 0 19 46
0 23 81 1 545 2189 515 544 547 0 543 548 549 14 19 1603 548 ?0 544 550 5 6 +0 0
 0 544 23 15 546 1527 0 551 544 0 17 551 0 546 552 553 48 61 432 0 0 -17 552 0 5
46 58 551 45 55 419 0 0 -17 553 0 546 551 58 59 418 415 0 0 -17 61 0 36 554 242
 59 551 432 0 301 +17 554 0 36 117 61 121 301 298 0 0 -17 242 0 36 61 71 48 555
 239 0 551 +17 301 0 556 418 329 59 554 298 0 553 +15 556 235 0 301 466 0 17 418
 0 556 96 301 56 553 415 0 557 +17 329 0 556 301 558 121 559 326 0 554 +17 558 0
 556 329 96 118 264 261 0 0 -17 559 0 560 114 123 118 329 326 0 558 -15 560 352
 0 559 532 0 17 114 0 560 561 559 112 120 334 0 333 -17 123 0 560 559 561 121 11
7 337 0 329 -17 561 0 560 123 114 115 333 330 0 562 -17 117 0 36 127 554 115 123
 337 0 561 +17 127 0 36 316 117 125 562 295 0 319 +17 316 0 36 313 127 129 563 2
49 0 0 +17 562 0 564 333 319 115 127 295 0 0 -17 319 0 564 562 137 125 565 283 0
 563 +15 564 532 0 260 566 0 17 137 0 564 319 102 124 484 256 0 565 +17 565 0 56
7 282 563 124 319 283 0 486 -17 563 0 567 565 131 125 316 249 0 0 -15 567 225 0
 563 511 0 17 131 0 567 563 282 129 140 320 0 568 +17 282 0 567 131 565 138 486
 279 0 0 +17 140 0 569 278 568 138 131 320 0 570 -17 568 0 569 140 134 129 313 3
10 0 316 -15 569 227 0 568 571 0 17 134 0 569 568 278 132 142 323 0 500 +17 313
 0 36 38 316 132 568 310 0 0 +17 278 0 569 134 140 128 570 275 0 0 +17 142 0 572
 274 500 128 134 323 0 573 -17 500 0 572 142 438 132 38 307 0 313 -15 572 229 0
 274 454 0 17 438 0 572 500 274 41 574 435 0 38 +17 274 0 572 438 142 35 573 271
 0 574 +17 574 0 550 483 39 35 438 435 0 0 -15 550 1604 0 483 19 0 17 483 0 550
 32 574 11 25 10 0 0 -17 39 0 550 574 32 41 34 40 0 438 -17 32 0 550 39 483 28 2
7 26 0 0 -17 25 0 480 573 33 35 483 10 0 274 +17 573 0 480 570 25 128 274 271 0
 278 -17 570 0 480 486 573 138 278 275 0 282 -17 486 0 480 484 570 124 282 279 0
 0 -14 454 230 575 ?571 465 452 5 576 +0 0 571 465 23 81 1 575 2191 515 454 577
 0 548 578 579 14 571 228 578 ?522 454 569 5 580 +0 0 522 454 23 14 465 232 581
 ?454 193 29 5 582 +0 0 454 193 23 50 576 255 0 454 580 582 0 +.004 0 0 0 -1 393
6364711545065e-32 0 -3936364711545065e-32 -1 50 580 254 0 571 520 576 0 +.004 0
 -.028 0 0 -1 -1 0 0 50 582 256 0 465 576 467 0 +.004 0 0 0 0 1 1 0 0 50 467 257
 0 193 582 583 0 +.004 .015 0 0 1 0 0 0 1 50 583 258 0 466 467 584 0 +.004 11144
2841486995e-31 -.053 0 210269512239613e-30 -1 0 1 210269512239613e-30 14 466 236
 585 ?193 566 556 5 583 -0 0 193 566 23 50 584 260 0 566 583 586 0 +.004 0 -.065
 0 0 -1 -1 0 0 14 566 240 587 ?466 532 564 5 584 +0 0 466 532 23 51 586 261 0 52
2 584 524 0 -.004 .042 -.059 -1 0 0 .00175 0 0 1 14 522 242 588 ?512 571 589 5 5
86 +0 0 512 571 23 51 524 262 0 512 586 514 0 -.004 .008 -.059 -1 0 0 .00175 0 0
 1 81 1 588 2196 515 522 590 0 587 591 592 15 589 241 0 255 522 593 17 255 0 589
 255 255 0 594 252 0 0 +15 593 243 0 595 522 0 17 595 0 593 595 595 0 294 291 0
 0 -17 294 0 503 294 294 0 595 291 0 0 +15 503 132 0 294 498 36 17 594 0 596 594
 594 0 255 252 0 0 -15 596 7 0 594 502 0 14 502 1 591 ?498 511 597 5 533 +481 48
1 498 511 23 81 1 591 2197 515 502 598 0 588 599 600 15 597 516 0 264 502 596 50
 533 3 0 502 601 504 0 +.004 0 0 1 0 0 0 0 -1 50 601 630 0 602 603 533 0 +-.0345
941170815567 .028 -.035 0 1 0 0 0 1 50 504 197 0 498 533 520 0 +-.004 0 0 1 0 0
 0 0 -1 50 520 253 0 511 504 580 0 +.004 .0032 487597950004291e-33 0 -1 -1523743
59376341e-30 0 152374359376341e-30 -1 14 602 599 599 ?604 605 606 5 601 +0 0 604
 605 23 50 603 632 0 605 607 601 0 +-.0345941170815567 .022 -.035 0 -1 115648231
7317872e-31 0 -1156482317317872e-31 -1 14 605 595 608 ?602 490 609 5 603 +0 0 60
2 490 23 50 607 634 0 604 610 603 0 +.011 0 0 1 0 0 0 0 -1 14 604 624 611 ?492 6
02 612 5 607 +0 0 492 602 23 51 610 1044 0 613 614 607 0 +-999999999999959e-19 .
048 -.02155 0 -1 -744717648130147e-31 .0015 0 744717648130148e-31 -1 14 613 1031
 615 ?616 478 617 5 610 -0 0 616 478 23 50 614 1249 0 616 618 610 0 +.0018 -1734
723475976805e-33 -229595754173401e-33 1 0 -127553196763e-27 -127553196763e-27 0
 -1 14 616 1182 619 ?620 613 621 5 614 -0 0 620 613 23 51 618 1250 0 186 622 614
 0 +-999999999999962e-19 -1734723475976805e-33 -.0349 0 1 0 .0019 0 0 1 14 186 1
194 623 ?457 170 178 5 618 -0 0 457 170 23 50 622 1251 0 170 624 618 0 +-.002 -1
734723475976805e-33 510212787051997e-33 1 0 -255106393526e-27 -255106393526e-27
 0 -1 14 170 1190 625 ?186 620 165 5 622 +0 0 186 620 23 51 624 1252 0 620 461 6
22 0 +-999999999999959e-19 -1734723475976805e-33 -.0332 0 1 0 .0019 0 0 1 14 620
 1186 626 ?170 616 627 5 624 -0 0 170 616 23 51 461 1255 0 457 0 624 0 +-9999999
99999959e-19 -1734723475976805e-33 -.00655 0 1 0 .0019 0 0 1 81 1 626 2205 515 6
20 628 0 625 629 630 15 627 1189 0 153 620 0 17 153 0 627 162 631 151 632 391 0
 171 +17 162 0 627 195 153 160 171 180 0 166 +17 631 0 627 153 195 148 159 206 0
 632 -17 632 0 519 633 175 148 153 391 0 0 -17 171 0 165 167 166 151 162 180 0 1
75 -17 175 0 519 632 177 151 167 176 0 0 +15 519 1081 0 633 511 567 17 177 0 519
 175 633 78 156 386 0 0 -17 633 0 519 177 632 154 150 394 0 0 -17 156 0 178 183
 80 154 177 386 0 187 +17 187 0 621 150 77 154 183 181 0 633 -15 621 1185 0 150
 616 0 17 150 0 621 159 187 148 633 394 0 631 +17 77 0 621 187 159 75 189 191 0
 183 +17 159 0 621 77 150 157 631 206 0 195 +17 189 0 188 174 184 157 77 191 0 0
 -17 195 0 627 631 162 157 174 196 0 189 +80 1 515 634 635 9000 1 1 1 1 1 1 1 1
 0 FFFFTFTFFFFFFF1 81 1 628 2107 636 620 637 626 638 639 640 81 1 625 2204 515 1
70 639 0 623 626 641 81 1 629 2206 515 532 642 0 626 643 644 82 255 1 630 204996
7139 14 532 401 629 ?566 481 560 5 525 +0 0 566 481 23 81 1 642 2085 636 532 645
 629 646 647 648 81 1 643 2207 515 478 649 0 629 650 651 82 1 644 162661302 14 4
78 979 643 ?613 652 475 5 536 +0 0 613 652 23 81 1 649 2104 636 478 653 643 654
 655 656 81 1 650 2208 515 652 654 0 643 657 658 82 1 651 -658897967 14 652 897
 650 ?478 492 659 5 542 -0 0 478 492 23 81 1 654 2103 636 652 660 650 661 649 66
2 81 1 657 2209 515 492 661 0 650 663 664 82 1 658 -681376731 14 492 872 657 ?65
2 604 487 5 665 -0 0 652 604 23 81 1 661 2102 636 492 666 657 667 654 668 81 1 6
63 2210 515 490 669 0 657 0 670 82 1 664 -683801563 14 490 453 663 ?605 498 489
 5 671 -0 0 605 498 23 81 1 669 2098 636 490 672 663 673 674 675 82 1 670 165610
533 80 1 636 0 676 8001 0 0 0 0 3 5 0 0 0 FFFFTFTFFFFFFF2 81 2 672 1863 677 490
 0 669 678 679 0 0 81 1 673 2097 636 498 678 501 598 669 680 81 1 674 2099 636 6
05 679 608 669 681 682 83 255 3 675 .792156862745098 .819607843137255 .933333333
333333 81 2 679 1865 677 605 0 674 672 683 0 0 81 1 608 2199 515 605 674 0 599 6
11 684 81 1 681 2100 636 602 683 599 674 667 685 83 3 682 .792156862745098 .8196
07843137255 .933333333333333 81 2 683 1867 677 602 0 681 679 686 0 0 81 1 599 21
98 515 602 681 0 591 608 687 81 1 667 2101 636 604 686 611 681 661 688 83 3 685
 .792156862745098 .819607843137255 .933333333333333 81 2 686 1869 677 604 0 667
 683 666 0 0 81 1 611 2200 515 604 667 0 608 615 689 83 3 688 .792156862745098 .
819607843137255 .933333333333333 81 1 615 2201 515 613 655 0 611 619 690 82 1 68
9 -1016658907 81 1 655 2105 636 613 691 615 649 638 692 81 1 619 2202 515 616 63
8 0 615 623 693 82 1 690 -645856302 81 1 638 2106 636 616 694 619 655 628 695 81
 1 623 2203 515 186 696 0 619 625 697 82 1 693 2050622499 81 1 696 2109 636 186
 698 623 639 699 700 82 1 697 2050425891 81 2 698 1885 677 186 0 696 701 702 0 0
 81 1 639 2108 636 170 701 625 628 696 703 81 1 699 2110 636 457 702 459 696 704
 705 83 3 700 .792156862745098 .819607843137255 .933333333333333 81 2 702 1887 6
77 457 0 699 698 706 0 0 81 1 459 2180 515 457 699 0 0 464 707 81 1 704 2111 636
 460 706 543 699 547 708 83 3 705 .792156862745098 .819607843137255 .93333333333
3333 81 2 706 1889 677 460 0 704 702 709 0 0 81 1 543 2188 515 460 704 0 530 545
 710 81 1 547 2112 636 544 709 545 704 711 712 83 3 708 .792156862745098 .819607
843137255 .933333333333333 81 2 709 1891 677 544 0 547 706 713 0 0 81 1 711 2113
 636 19 713 548 547 0 714 83 3 712 .792156862745098 .819607843137255 .9333333333
33333 81 2 713 1893 677 19 0 711 709 0 0 0 81 1 548 2190 515 19 711 0 545 575 71
5 83 3 714 .792156862745098 .819607843137255 .933333333333333 82 1 715 209826717
4 80 2 677 716 717 9000 0 0 0 0 3 6 0 0 0 FFFFTFFFFFFFFF9 1 79 255 14 717 FACE_I
D_2_200181 1 530 2187 515 481 646 0 526 543 718 82 1 710 2081358885 81 1 646 208
4 636 481 719 530 529 642 720 82 1 718 -1006435290 81 2 719 1835 677 481 0 646 7
21 645 0 0 81 1 529 2083 636 16 721 526 0 646 722 83 3 720 .792156862745098 .819
607843137255 .933333333333333 81 2 721 1833 677 16 0 529 0 719 0 0 83 3 722 .792
156862745098 .819607843137255 .933333333333333 81 2 645 1837 677 532 0 642 719 7
23 0 0 81 2 723 1839 677 566 0 647 645 724 0 0 81 1 647 2086 636 566 723 587 642
 725 726 81 2 724 1841 677 466 0 725 723 727 0 0 81 1 725 2087 636 466 724 585 6
47 728 729 81 2 727 1843 677 193 0 728 724 730 0 0 81 1 728 2088 636 193 727 464
 725 731 732 81 2 730 1845 677 465 0 731 727 733 0 0 81 1 731 2089 636 465 730 5
81 728 577 734 81 2 733 1847 677 454 0 577 730 735 0 0 81 1 577 2090 636 454 733
 575 731 736 737 81 2 735 1849 677 571 0 736 733 738 0 0 81 1 736 2091 636 571 7
35 578 577 590 739 81 2 738 1851 677 522 0 590 735 740 0 0 81 1 590 2092 636 522
 738 588 736 741 742 81 2 740 1853 677 512 0 741 738 743 0 0 81 1 741 2093 636 5
12 740 521 590 516 744 81 2 743 1855 677 509 0 516 740 745 0 0 81 1 516 2094 636
 509 743 510 741 746 747 81 2 745 1857 677 511 0 746 743 748 0 0 81 1 746 2095 6
36 511 745 517 516 598 749 81 2 748 1859 677 502 0 598 745 678 0 0 81 1 598 2096
 636 502 748 591 746 673 750 81 2 678 1861 677 498 0 673 748 672 0 0 83 3 750 .7
92156862745098 .819607843137255 .933333333333333 81 1 517 2184 515 511 746 0 510
 521 751 83 3 749 .792156862745098 .819607843137255 .933333333333333 81 1 521 21
85 515 512 741 0 517 526 752 82 1 751 146015267 82 1 752 147719093 83 3 747 .792
156862745098 .819607843137255 .933333333333333 83 3 744 .792156862745098 .819607
843137255 .933333333333333 83 3 742 .792156862745098 .819607843137255 .933333333
333333 81 1 578 2192 515 571 736 0 575 581 753 83 3 739 .792156862745098 .819607
843137255 .933333333333333 81 1 581 2193 515 465 731 0 578 585 754 82 1 753 1461
46229 81 1 585 2194 515 466 725 0 581 587 755 82 1 754 146408486 81 1 587 2195 5
15 566 647 0 585 588 756 82 1 755 146670629 82 1 756 147260368 83 3 737 .7921568
62745098 .819607843137255 .933333333333333 83 3 734 .792156862745098 .8196078431
37255 .933333333333333 81 1 464 2181 515 193 728 0 459 501 757 83 3 732 .7921568
62745098 .819607843137255 .933333333333333 81 1 501 2182 515 498 673 0 464 510 7
58 82 1 757 146539555 82 1 758 143197222 83 3 729 .792156862745098 .819607843137
255 .933333333333333 83 3 726 .792156862745098 .819607843137255 .933333333333333
 82 1 707 2038760483 81 2 701 1883 677 170 0 639 637 698 0 0 83 3 703 .792156862
745098 .819607843137255 .933333333333333 81 2 637 1881 677 620 0 628 694 701 0 0
 81 2 694 1879 677 616 0 638 691 637 0 0 81 2 691 1877 677 613 0 655 653 694 0 0
 81 2 653 1875 677 478 0 649 660 691 0 0 81 2 660 1873 677 652 0 654 666 653 0 0
 81 2 666 1871 677 492 0 661 686 660 0 0 83 3 695 .792156862745098 .819607843137
255 .933333333333333 83 3 692 .792156862745098 .819607843137255 .933333333333333
 82 1 687 -1010301915 82 1 684 -1008729051 83 3 680 .792156862745098 .8196078431
37255 .933333333333333 79 15 676 SDL/TYSA_COLOUR51 671 465 0 490 525 665 0 +.004
 .02 -.048 -1 0 0 .005 0 0 1 51 525 404 759 532 514 671 0 +.004 .042 -.059 -1 0
 0 .006 0 0 1 50 665 886 760 492 671 542 0 -.011 .022 -.035 .707106781186544 -.7
07106781186552 817756488897804e-31 0 1156482317317872e-31 1 81 2 760 887 538 665
 0 0 759 539 761 762 50 542 909 539 652 665 536 0 -.011 .028 -.035 .707106781186
544 .707106781186551 0 0 0 -1 81 2 539 910 538 542 0 0 760 535 763 764 80 2 538
 765 766 8044 0 0 0 0 3 5 0 0 0 FFFFTFFFTTFFFF3 2 84 255 6 763 BAAAAB83 3 764 0
 .00989949493661168 .007 79 17 766 SDL/TYSA_BLEND_ID81 2 759 405 538 525 0 0 0 7
60 767 768 84 6 761 BAAAAB83 3 762 122663473334375e-32 .00989949493661168 .007 8
4 6 767 EAKBCC83 2 768 0 3.141592653589795 83 3 668 .792156862745098 .8196078431
37255 .933333333333333 83 3 662 .792156862745098 .819607843137255 .9333333333333
33 15 659 898 0 769 652 0 17 769 0 659 770 771 97 147 369 0 0 -17 770 0 659 557
 769 94 99 356 0 0 -17 771 0 659 769 431 145 47 228 0 0 -17 147 0 564 772 260 14
5 769 369 0 226 +17 772 0 564 102 147 135 226 223 0 0 -17 260 0 564 147 333 97 7
73 257 0 769 +17 226 0 612 47 494 145 772 223 0 771 +15 612 626 0 47 604 0 17 47
 0 612 74 226 45 771 228 0 774 +17 494 0 612 226 235 135 51 231 0 772 +17 235 0
 612 494 68 49 775 232 0 493 +16 231 703 776 ?494 232 228 229 232 232 1 81 2 776
 2071 199 231 0 0 273 434 0 0 81 2 273 2070 199 271 0 0 259 776 0 0 81 2 434 207
2 199 432 0 0 776 312 0 0 81 2 312 2073 199 310 0 0 434 374 0 0 81 2 374 2074 19
9 372 0 0 312 306 0 0 81 2 306 2075 199 304 0 0 374 202 0 0 81 2 202 2076 199 19
6 0 0 306 297 0 0 81 2 297 2077 199 295 0 0 202 336 0 0 81 2 336 2078 199 334 0
 0 297 270 0 0 81 2 270 2079 199 268 0 0 336 358 0 0 81 2 358 2080 199 356 0 0 2
70 388 0 0 81 2 388 2081 199 386 0 0 358 246 0 0 81 2 246 2082 199 244 0 0 388 0
 0 0 81 2 259 2069 199 257 0 0 300 273 0 0 81 2 300 2068 199 298 0 0 254 259 0 0
 81 2 254 2067 199 252 0 0 378 300 0 0 81 2 378 2066 199 376 0 0 234 254 0 0 81
 2 234 2065 199 232 0 0 407 378 0 0 81 2 407 2064 199 405 0 0 413 234 0 0 81 2 4
13 2063 199 411 0 0 339 407 0 0 81 2 339 2062 199 337 0 0 390 413 0 0 81 2 390 2
061 199 176 0 0 281 339 0 0 81 2 281 2060 199 279 0 0 201 390 0 0 81 2 201 2059
 199 248 0 0 197 281 0 0 17 68 0 612 235 74 66 777 408 0 778 +17 775 0 609 404 4
14 66 235 232 0 0 -15 609 598 0 497 605 0 17 404 0 609 497 775 53 778 401 0 0 +1
7 414 0 609 775 497 49 496 411 0 235 +17 497 0 609 414 404 52 65 236 0 496 -17 6
5 0 36 71 63 53 497 236 0 779 +17 71 0 36 242 65 69 779 405 0 534 +17 779 0 527
 778 534 53 71 405 0 404 -17 778 0 527 777 779 66 404 401 0 775 -17 534 0 527 77
9 777 69 400 397 0 555 -17 777 0 527 534 778 72 68 408 0 400 -17 400 0 606 774 5
55 72 534 397 0 0 +17 555 0 606 400 55 69 242 239 0 0 -15 606 602 0 774 602 0 17
 55 0 606 555 774 48 552 419 0 242 +17 774 0 606 55 400 45 74 227 0 431 -17 74 0
 612 68 47 72 774 227 0 777 +17 431 0 659 771 557 45 58 428 0 552 +17 557 0 659
 431 770 56 96 366 0 0 -17 58 0 546 553 552 56 431 428 0 418 -17 96 0 556 558 41
8 94 557 366 0 264 +17 264 0 597 99 120 94 558 261 0 770 +17 99 0 597 773 264 97
 770 356 0 260 +17 120 0 597 264 773 118 114 334 0 559 +17 773 0 597 120 99 112
 260 257 0 0 -17 333 0 564 260 562 112 561 330 0 773 +17 102 0 564 137 772 100 1
44 359 0 484 +17 144 0 487 51 485 135 102 359 0 494 -83 3 656 .792156862745098 .
819607843137255 .933333333333333 83 3 648 .792156862745098 .819607843137255 .933
333333333333 82 1 641 2050098211 83 3 640 .792156862745098 .819607843137255 .933
333333333333 79 14 635 SWEntUnchanged15 617 1034 0 222 613 780 17 222 0 617 222
 222 0 468 218 0 0 +15 780 1035 0 217 613 0 17 217 0 780 217 217 0 781 214 0 0 +
17 781 0 455 781 781 0 217 214 0 0 -15 455 1009 0 781 454 572 82 1 600 128386000
 82 1 592 147456949 15 29 231 0 31 465 0 17 31 0 29 27 375 28 37 304 0 32 -17 37
5 0 29 31 30 89 479 372 0 0 +17 37 0 36 86 34 89 31 304 0 476 +17 86 0 36 111 37
 84 476 376 0 470 +17 30 0 29 375 27 87 33 268 0 385 +82 1 579 146277414 82 1 54
9 2083324965 81 2 18 1616 538 6 0 0 535 0 782 783 84 6 540 EAKBCC83 2 541 1.5707
96326794895 4.71238898038469 84 6 782 BAAAAB83 3 783 0 .004242640687119285 .003
 82 1 531 2078016548 17 247 0 513 247 247 0 784 244 0 0 +17 784 0 785 784 784 0
 247 244 0 0 -15 785 5 0 784 481 0 15 523 245 0 251 512 786 17 251 0 523 251 251
 0 787 248 0 0 +15 786 247 0 506 512 0 17 506 0 786 506 506 0 290 287 0 0 -17 78
7 0 482 787 787 0 251 248 0 0 -15 482 6 0 787 481 785 82 1 518 147981237 79 19 4
42 EDGE_PERM_ID_2_200319 17 273 0 1 0 9 5 S0 74 4 CI16 index_map_offset0 0 1 dCC
Z20 15 13 0 0 788 663 18 789 790 791 792 793 13 713 246 711 2 0 0 0 0 0 0 0 81 5
 788 89 794 1 0 789 0 0 795 0 0 0 0 81 2 789 673 796 1 788 790 0 0 0 797 81 2 79
0 681 798 1 789 791 0 0 0 799 81 1 791 1629 800 1 790 792 0 0 801 81 2 792 1730
 802 1 791 793 0 0 0 803 81 2 793 1826 804 1 792 13 0 0 805 0 81 2 13 1829 806 1
 793 2 0 0 0 0 80 2 806 807 808 9000 0 0 0 0 3 5 0 0 0 FFTFFFFFFFFFFF9 1 79 16 8
08 BODY_RECIPE_200180 2 804 809 810 8004 0 0 0 0 3 5 0 0 0 FFTFFFFFFFFFFF2 3 83
 1 805 1 79 16 810 SDL/TYSA_DENSITY80 2 802 811 812 9000 0 0 0 0 3 5 0 0 0 FFTFF
FFFFFFFFF9 1 82 1 803 1 79 24 812 BODY_IN_LIGHTWEIGHT_PERM80 1 800 813 814 9000
 1 1 1 1 1 1 1 1 0 FFTFFFFFFFFFFF1 82 1 801 264101 79 10 814 BODY_MATCH80 2 798
 815 816 9000 0 0 0 0 3 5 0 0 0 FFTFFFFFFFFFFF9 1 82 1 799 311 79 30 816 LAST_BO
DY_MODIFYING_FEATURE_ID80 2 796 817 818 9000 0 0 0 0 3 5 0 0 0 FFTFFFFFFFFFFT9 1
 82 1 797 1171 79 19 818 ENT_TIME_STAMP_200180 5 794 819 820 9000 0 0 0 0 3 6 0
 0 0 FFTTTTTTFTTFTT2 2 2 2 2 83 1 795 1 79 19 820 BODY_SCALING_FACTOR80 2 12 199
 821 9000 0 0 0 0 3 5 0 0 0 FFTFFFFFFFFFFF9 1 82 1 14 107 79 12 821 ATOM_ID_2001
1 0 
